<?xml version="1.0" standalone="no"?>
<!DOCTYPE svg PUBLIC "-//W3C//DTD SVG 20010904//EN"
 "http://www.w3.org/TR/2001/REC-SVG-20010904/DTD/svg10.dtd">
<svg version="1.0" xmlns="http://www.w3.org/2000/svg"
 width="1774.000000pt" height="1774.000000pt" viewBox="0 0 1774.000000 1774.000000"
 preserveAspectRatio="xMidYMid meet">
<metadata>
Created by potrace 1.14, written by Peter Selinger 2001-2017
</metadata>
<g transform="translate(0.000000,1774.000000) scale(0.100000,-0.100000)"
fill="#000000" stroke="none">
<path d="M14771 14096 c-4 -6 -8 -18 -8 -26 0 -8 -3 -55 -7 -105 -4 -49 -9
-119 -12 -155 -2 -36 -6 -90 -9 -120 -3 -30 -7 -93 -11 -140 -3 -47 -7 -100
-8 -119 -2 -19 2 -44 9 -57 11 -22 11 -91 0 -102 -2 -3 -62 -6 -132 -8 -71 -2
-208 -5 -305 -8 -159 -4 -178 -2 -182 12 -8 29 2 125 19 187 11 40 17 112 19
218 l3 157 -24 6 c-24 6 -110 0 -118 -8 -7 -7 -15 -147 -15 -278 0 -104 2
-127 16 -137 13 -10 15 -25 11 -90 -3 -43 -6 -78 -6 -78 -52 0 -633 -4 -668
-4 l-51 -1 -17 -54 -17 -53 -176 -2 c-114 -1 -185 -6 -201 -14 -15 -7 -30 -28
-39 -54 -15 -47 -8 -45 -132 -45 -31 0 -57 -7 -82 -24 -21 -13 -40 -24 -42
-24 -3 0 -28 -14 -56 -32 l-51 -31 61 -39 c34 -21 63 -38 66 -38 2 0 17 -8 31
-17 20 -14 48 -18 112 -18 l86 0 20 -43 c11 -23 29 -45 40 -48 11 -2 97 -6
192 -7 l172 -2 27 -68 c19 -47 34 -69 48 -72 25 -6 67 -13 82 -14 6 -1 16 -12
22 -25 15 -33 62 -33 62 -1 0 16 7 24 25 28 33 6 47 -19 81 -148 1 -5 12 -42
23 -82 49 -171 74 -388 51 -443 -7 -17 -31 -40 -55 -55 l-44 -25 1 -68 c0 -37
0 -128 -1 -203 l-1 -136 -172 3 c-95 1 -371 5 -613 9 -656 9 -889 13 -900 14
-7 1 -11 51 -12 134 0 72 -1 147 -2 164 l-1 33 -355 -5 c-336 -4 -355 -3 -365
14 -7 15 -19 18 -57 16 -100 -7 -173 -8 -177 -4 -3 3 -7 85 -11 184 -3 99 -8
227 -10 285 -3 58 -7 173 -10 255 -3 83 -8 211 -11 285 -2 74 -7 185 -9 245
-2 61 -7 187 -10 280 -13 327 -13 345 2 345 17 0 16 7 -4 83 -21 78 -93 157
-142 157 -17 0 -32 -1 -33 -2 -2 -1 -13 4 -25 10 -19 10 -25 9 -43 -10 -19
-21 -30 -23 -136 -23 -64 0 -118 3 -120 7 -7 11 -62 10 -69 -2 -3 -5 -15 -10
-25 -10 -22 0 -20 28 3 42 9 5 17 15 17 22 0 7 11 23 25 36 14 13 25 28 25 34
0 6 9 22 19 36 21 27 17 26 256 30 79 1 129 7 145 15 22 12 -4 13 -180 10
-113 -2 -208 -4 -212 -4 -4 -1 -22 -28 -40 -61 -35 -64 -55 -73 -87 -41 -11
11 -28 18 -38 16 -10 -2 -21 -4 -24 -4 -3 -1 -18 -12 -34 -25 -24 -21 -27 -29
-21 -59 8 -43 7 -43 -109 -46 -49 -1 -97 -4 -105 -6 -8 -2 -31 -6 -50 -9 -19
-3 -73 -12 -118 -20 -46 -9 -87 -15 -90 -14 -4 1 -25 -1 -47 -5 -52 -9 -151
-20 -195 -21 -31 -1 -34 2 -36 29 -1 17 -2 39 -3 50 -1 11 -12 33 -25 48 l-23
29 -89 -25 c-185 -53 -211 -62 -279 -102 -40 -23 -113 -53 -170 -69 -55 -16
-131 -38 -170 -49 -38 -12 -72 -22 -75 -22 -3 0 -36 -9 -74 -20 -52 -14 -71
-16 -74 -7 -2 8 -38 12 -117 12 l-114 0 -10 -37 c-6 -21 -11 -44 -11 -51 0 -7
-6 -14 -12 -17 -206 -67 -374 -116 -390 -112 -11 3 -32 1 -47 -4 -14 -6 -28
-11 -31 -11 -3 0 -16 -8 -30 -18 -14 -9 -35 -21 -47 -24 -13 -4 -23 -13 -23
-19 0 -21 17 -40 31 -35 8 3 28 1 45 -4 23 -6 45 -2 94 17 35 14 67 25 71 25
3 0 7 -26 7 -57 0 -32 2 -89 4 -126 5 -72 3 -75 -42 -79 -30 -4 -37 -24 -30
-91 5 -48 7 -51 33 -53 34 -1 43 -13 51 -64 5 -30 11 -39 31 -42 33 -7 35 -3
35 53 0 42 2 47 19 42 13 -3 19 -13 19 -31 -1 -44 1 -49 22 -55 18 -5 20 -14
20 -100 l0 -96 -57 -11 c-115 -23 -158 -36 -155 -48 7 -37 3 -221 -6 -238 -5
-10 -11 -73 -11 -138 -1 -65 -4 -123 -7 -127 -3 -5 13 -9 35 -9 39 0 41 -1 42
-32 2 -63 9 -162 13 -165 2 -2 29 -4 60 -4 31 -1 56 -5 56 -10 0 -5 -7 -9 -15
-9 -18 0 -17 0 -85 -20 l-55 -16 0 -111 c0 -61 -3 -114 -6 -117 -3 -3 -23 -8
-45 -12 -21 -3 -79 -14 -129 -24 -49 -11 -101 -21 -115 -24 -176 -33 -168 -29
-163 -76 l5 -40 -444 3 -443 3 0 21 c0 27 -3 30 -45 37 -19 4 -42 9 -50 11 -8
2 -18 4 -22 4 -4 1 -6 53 -4 116 2 76 -1 118 -8 124 -6 5 -40 12 -76 16 -70 7
-125 28 -134 51 -3 7 -8 64 -12 126 l-6 113 189 -3 189 -2 34 26 c33 24 39 25
128 20 114 -7 146 5 161 61 8 29 7 51 -5 95 l-16 57 36 42 c19 23 32 47 28 53
-3 6 -7 16 -8 21 -1 6 -12 39 -23 74 -12 35 -21 64 -21 65 0 1 14 1 30 0 40
-3 44 7 29 67 -10 38 -20 54 -36 60 -22 8 -23 13 -16 56 9 59 9 140 0 214 -6
55 -6 57 19 57 32 0 34 2 45 52 10 44 -3 86 -23 74 -23 -15 -23 21 0 92 l24
76 -30 31 -31 32 18 51 c18 49 18 52 0 100 -27 70 -38 75 -151 73 -88 -2 -100
0 -135 22 -74 49 -93 52 -311 54 -114 1 -213 3 -220 4 -8 1 -11 11 -7 30 l5
30 -287 -5 c-159 -2 -400 -6 -538 -9 -137 -2 -412 -7 -610 -11 -198 -3 -430
-7 -515 -9 -131 -2 -158 0 -174 14 -21 18 -56 19 -556 6 -168 -4 -359 -8 -425
-10 -66 -2 -211 -4 -323 -5 -159 -2 -204 -6 -214 -17 -25 -31 -56 -35 -301
-39 -449 -8 -497 -10 -506 -20 -5 -5 -40 -92 -76 -194 -37 -102 -82 -228 -101
-280 l-35 -95 6 -260 c3 -143 7 -334 10 -425 3 -91 7 -248 10 -350 2 -102 7
-291 10 -421 l6 -235 -43 -14 c-24 -7 -48 -14 -55 -16 -14 -2 -89 -14 -119
-18 -12 -2 -38 -13 -57 -25 -58 -36 -57 -18 -43 -576 11 -452 17 -658 21 -805
4 -169 16 -642 19 -780 2 -78 -1 -99 -16 -119 -25 -33 -21 -95 9 -122 18 -18
20 -25 11 -36 -12 -15 -12 -25 -3 -1248 2 -258 4 -531 5 -605 l0 -135 38 -24
c42 -27 111 -76 149 -107 25 -20 25 -23 29 -175 1 -84 5 -246 8 -359 3 -113 8
-324 11 -470 4 -146 8 -301 9 -345 3 -80 16 -124 39 -126 7 0 21 -2 32 -4 23
-5 85 -12 165 -20 47 -5 118 -13 360 -40 19 -2 82 -9 140 -15 58 -6 119 -13
135 -15 29 -4 172 -20 265 -30 25 -2 61 -7 80 -9 34 -5 74 -9 205 -21 33 -4
74 -9 90 -11 17 -3 51 -7 76 -9 26 -2 64 -6 85 -9 40 -5 102 -12 189 -21 28
-2 88 -9 135 -15 141 -16 193 -21 230 -25 33 -3 92 -10 170 -20 19 -3 67 -8
105 -11 39 -3 77 -8 86 -9 9 -2 52 -6 95 -10 43 -4 81 -9 84 -10 3 -2 43 -6
90 -10 47 -4 92 -8 101 -10 18 -4 88 -12 169 -20 30 -3 66 -8 80 -10 14 -2 57
-6 95 -10 39 -3 89 -8 111 -11 23 -2 59 -6 80 -9 22 -2 59 -6 84 -9 25 -3 65
-8 90 -10 25 -3 62 -7 82 -11 20 -3 74 -7 119 -9 70 -2 93 1 153 24 142 55
224 94 388 186 129 73 173 93 195 90 31 -5 104 -13 173 -20 96 -10 166 -18
200 -22 19 -2 58 -7 85 -9 28 -3 70 -7 95 -10 25 -3 70 -7 100 -11 30 -3 71
-7 90 -9 19 -3 62 -7 95 -10 33 -3 76 -8 95 -10 19 -3 60 -7 90 -10 30 -3 73
-8 95 -10 22 -2 67 -7 100 -10 67 -7 123 -13 175 -20 19 -2 62 -7 95 -10 33
-3 101 -10 150 -15 148 -16 178 -19 235 -25 30 -3 73 -7 95 -10 66 -8 127 -14
190 -20 33 -3 76 -8 95 -10 19 -3 56 -7 83 -10 26 -3 67 -7 92 -10 24 -3 69
-7 99 -10 31 -3 73 -8 93 -10 21 -2 65 -6 98 -10 33 -3 76 -8 95 -10 19 -3 60
-7 90 -10 30 -3 71 -7 90 -10 19 -2 62 -7 95 -10 33 -3 74 -7 90 -9 17 -3 64
-7 105 -11 41 -4 89 -9 105 -12 31 -5 60 -8 175 -18 36 -3 76 -7 90 -9 14 -3
54 -7 90 -10 36 -4 75 -8 85 -10 11 -2 54 -7 95 -10 41 -4 89 -9 105 -11 17
-3 57 -7 90 -10 33 -3 74 -7 90 -9 17 -2 62 -7 100 -11 39 -4 84 -8 100 -10
17 -2 55 -6 85 -10 30 -3 71 -8 90 -10 19 -3 64 -8 100 -10 36 -3 76 -8 90
-10 14 -2 56 -7 93 -10 37 -2 80 -7 95 -9 15 -3 53 -7 85 -10 147 -15 174 -18
207 -22 19 -2 58 -6 85 -9 28 -3 70 -7 95 -10 25 -3 70 -7 100 -10 60 -7 116
-13 170 -20 19 -2 67 -7 105 -10 39 -3 84 -8 100 -10 17 -3 53 -7 80 -9 28 -3
70 -7 95 -10 25 -3 69 -8 98 -11 28 -3 76 -7 105 -10 28 -3 62 -8 74 -10 17
-4 23 1 27 23 5 24 24 131 31 172 2 11 16 15 61 14 68 -1 195 -11 198 -16 2
-2 9 -24 16 -50 7 -27 15 -48 19 -49 3 0 13 -2 21 -3 8 -2 40 -6 70 -9 30 -4
75 -9 98 -13 38 -5 47 -3 72 21 19 18 30 41 35 72 l6 45 47 -7 c26 -3 67 -8
92 -10 25 -3 68 -7 95 -9 28 -3 82 -8 120 -12 39 -4 81 -8 95 -9 14 -2 59 -6
100 -10 41 -3 89 -8 105 -10 57 -7 175 -18 182 -16 10 2 20 -154 12 -199 -3
-21 -30 -68 -67 -118 l-61 -82 6 -102 c3 -57 6 -112 7 -122 0 -11 15 -27 33
-37 31 -18 57 -23 163 -34 30 -3 71 -8 90 -10 19 -2 64 -7 100 -11 36 -4 76
-8 90 -10 14 -2 52 -6 85 -9 33 -2 76 -7 95 -10 19 -2 60 -7 90 -10 30 -3 71
-7 90 -10 19 -2 60 -7 90 -10 30 -3 89 -10 130 -15 41 -5 102 -12 135 -15 33
-3 96 -10 140 -15 72 -8 153 -17 225 -25 14 -1 48 -5 75 -9 28 -3 75 -8 105
-11 30 -3 71 -7 90 -10 19 -2 60 -7 90 -10 30 -3 71 -8 90 -10 19 -2 60 -7 90
-10 30 -3 71 -7 90 -10 108 -14 157 -15 185 -3 33 14 39 21 148 160 82 104 79
95 62 212 -5 38 23 91 74 139 27 26 41 48 42 65 0 15 2 54 5 87 2 33 5 86 6
117 2 36 7 58 15 58 6 0 39 -7 74 -16 38 -10 64 -12 68 -6 3 5 36 43 73 84 61
67 70 74 100 71 29 -4 36 1 58 34 14 20 32 45 40 54 8 9 23 27 33 40 10 13 35
47 56 74 21 28 37 57 36 65 -1 8 -6 65 -10 125 -4 61 -9 121 -10 135 -2 14 -3
31 -4 39 -1 10 -12 12 -45 9 -37 -4 -44 -2 -44 11 1 17 -11 406 -17 591 -2 58
-7 197 -10 310 -3 113 -8 266 -10 340 -5 152 -12 374 -20 625 -3 94 -7 233
-10 310 -9 277 -17 551 -18 585 0 22 -32 105 -87 225 -78 169 -90 190 -115
197 -30 8 -130 16 -275 23 -47 2 -137 7 -200 10 -63 4 -138 8 -166 9 -28 2
-55 6 -61 9 -6 4 -6 31 0 79 10 81 27 111 110 188 l48 45 -5 355 c-3 195 -8
501 -10 680 -15 925 -16 1158 -8 1181 5 13 28 46 50 73 27 32 40 57 37 70 -2
12 -4 51 -4 87 l-1 67 -47 8 c-46 9 -48 10 -51 47 -2 20 1 37 6 37 5 0 9 7 9
15 0 8 -4 15 -9 15 -4 0 -8 9 -8 21 0 11 -9 28 -20 37 -16 14 -21 34 -26 112
-3 52 -7 111 -9 130 -2 19 -4 62 -6 95 -1 33 -9 73 -17 89 -12 26 -24 60 -62
191 -5 17 -22 75 -39 130 -16 55 -46 154 -66 220 l-35 120 22 17 c12 9 26 14
30 12 4 -3 16 0 27 6 11 5 44 13 74 16 l54 6 8 -33 c4 -19 10 -47 12 -63 14
-95 57 -224 86 -263 l32 -42 73 -1 c59 0 80 4 103 21 22 15 38 19 68 14 23 -3
56 0 82 9 23 8 46 13 49 11 4 -2 21 -7 38 -10 18 -3 65 -13 105 -21 102 -23
161 -19 264 17 53 19 63 26 63 46 0 13 1 26 1 30 3 16 -106 64 -171 74 -76 13
-142 5 -239 -30 -51 -18 -55 -18 -109 -1 -32 9 -56 21 -55 26 0 5 4 63 8 129
3 66 8 136 10 155 6 44 6 420 1 429 -2 3 -7 29 -10 56 -4 28 -9 61 -11 75 -2
14 -6 45 -10 70 -12 84 -69 265 -94 302 l-26 37 -80 -1 c-77 -1 -81 -3 -111
-35 -17 -18 -39 -59 -49 -90 -19 -61 -19 -63 -30 -188 -4 -44 -9 -81 -10 -83
-2 -2 -26 -5 -54 -8 -38 -3 -66 2 -110 20 -33 13 -61 23 -63 21 -2 -2 -184 -7
-405 -10 l-401 -7 0 38 c0 21 6 43 14 49 8 6 15 42 19 100 4 50 8 106 10 125
2 19 6 82 10 140 3 58 8 121 10 140 12 118 14 229 5 235 -19 12 -150 13 -159
1z m-4153 -365 c5 -14 49 -14 54 0 3 9 10 9 26 0 19 -10 21 -17 16 -50 -4 -27
-1 -46 10 -63 15 -23 18 -59 31 -378 2 -58 7 -163 10 -235 7 -150 11 -250 20
-460 3 -82 8 -184 10 -225 7 -115 17 -385 19 -479 l1 -84 -27 -4 c-16 -2 -28
0 -29 4 -1 4 -3 49 -5 98 -2 50 -6 101 -10 115 -6 26 -4 37 7 33 8 -3 18 53
16 86 -3 33 -20 36 -229 36 -98 0 -178 0 -178 0 0 0 6 34 14 76 14 83 12 209
-5 252 -7 15 -10 30 -7 32 2 2 58 5 124 7 128 2 145 9 136 54 -6 32 -23 35
-177 31 -116 -3 -133 -1 -156 16 -40 29 -133 30 -184 2 -40 -22 -109 -32 -118
-18 -9 14 -106 6 -130 -10 -13 -8 -30 -30 -37 -47 l-13 -31 -480 3 c-316 2
-481 6 -483 13 -2 5 -6 37 -8 70 -2 33 -4 65 -5 70 -1 11 -18 14 -116 19 -33
2 -68 4 -77 5 -15 1 -17 13 -16 96 1 87 2 95 22 101 28 9 36 22 36 61 0 31 18
57 22 31 1 -13 3 -24 8 -43 6 -19 8 -30 9 -42 0 -7 12 -12 26 -11 14 1 24 7
24 13 -1 5 -1 31 0 56 1 43 3 47 31 53 30 5 30 6 30 76 0 51 -4 70 -12 69 -57
-7 -58 -6 -58 104 0 139 -3 182 -15 183 -5 0 -28 3 -50 7 -56 10 -89 10 -172
3 -64 -6 -73 -5 -82 12 -5 10 -6 24 -2 31 5 7 6 21 4 31 -6 22 1 26 52 34 22
4 54 8 70 11 17 3 47 7 68 10 91 12 113 16 133 20 12 3 39 7 60 10 21 4 75 13
119 20 84 15 115 20 180 30 23 3 52 8 65 10 44 9 333 56 375 61 22 2 60 7 85
10 50 7 182 6 370 -2 150 -7 143 -7 255 1 49 3 92 10 95 15 12 19 242 20 248
1z m5535 -683 c5 -37 3 -48 -8 -48 -10 0 -14 13 -13 43 1 74 13 76 21 5z m2
-325 c-6 -193 -14 -225 -34 -151 -11 39 -10 66 3 138 3 14 7 47 11 74 6 48 12
66 20 66 3 0 3 -57 0 -127z m-6325 -646 c0 -5 12 -21 26 -34 25 -23 31 -24
112 -18 47 3 88 8 92 10 9 6 35 -23 27 -31 -3 -3 -18 -7 -34 -10 -15 -2 -88
-13 -162 -24 -74 -11 -136 -20 -137 -20 -2 0 -4 34 -4 76 0 41 3 73 8 71 4 -3
16 -1 27 3 21 8 45 -5 45 -23z m-1435 -2991 c77 -3 221 -8 320 -12 99 -4 199
-7 222 -8 24 -1 43 -2 43 -4 0 -14 -53 -81 -61 -76 -6 3 -38 7 -72 9 -136 8
-310 15 -462 21 -137 5 -188 8 -228 13 -8 1 21 52 36 62 5 3 21 5 35 3 15 -2
90 -5 167 -8z m1150 -61 c88 -3 198 -7 245 -9 47 -3 155 -7 240 -11 85 -3 200
-8 255 -11 55 -2 152 -7 215 -9 332 -14 460 -20 480 -24 3 -1 7 -16 8 -34 2
-32 1 -33 -30 -31 -18 2 -96 6 -173 9 -77 3 -162 8 -190 10 -27 2 -120 7 -205
11 -225 10 -253 11 -385 18 -66 4 -165 8 -220 11 -309 14 -414 20 -420 26 -4
5 -8 31 -6 46 0 7 7 10 14 8 6 -2 84 -6 172 -10z m1782 -79 c3 -3 2 -18 -2
-35 l-6 -30 -112 4 c-62 2 -115 4 -119 4 -9 1 -11 55 -2 63 6 7 235 1 241 -6z
m343 -21 c85 -3 191 -8 235 -10 44 -3 136 -8 205 -10 69 -3 168 -7 220 -10 89
-4 148 -7 420 -20 106 -5 219 -11 430 -20 253 -12 289 -16 400 -40 14 -3 41
-8 60 -11 19 -4 46 -15 59 -25 21 -17 22 -19 5 -20 -11 -1 -22 -1 -25 -1 -14
2 -199 13 -279 17 -189 10 -357 19 -535 30 -49 3 -130 8 -180 10 -49 2 -126 7
-170 9 -44 3 -127 8 -185 11 -58 3 -141 7 -185 10 -44 3 -129 7 -190 10 -60 3
-130 8 -155 10 -25 2 -108 7 -185 10 -123 6 -173 9 -197 14 -3 0 -4 10 -1 20
6 23 25 30 68 25 17 -2 100 -6 185 -9z m-3750 -100 c69 -2 172 -7 230 -10 58
-2 166 -7 240 -10 284 -12 358 -15 445 -21 49 -3 90 -6 90 -7 1 -1 19 -25 42
-52 40 -49 42 -50 87 -47 39 3 51 10 89 50 39 42 48 47 87 47 44 0 44 0 59
-48 l15 -47 45 6 c58 7 63 13 52 50 l-9 31 62 -2 c57 -2 215 -10 401 -20 184
-10 295 -16 375 -20 173 -7 357 -16 425 -20 39 -3 133 -7 210 -10 89 -4 144
-11 151 -18 6 -7 30 -55 53 -109 46 -102 70 -132 119 -143 43 -9 73 14 116 86
34 58 44 81 50 125 3 17 11 19 67 18 59 -1 223 -8 424 -19 44 -2 130 -7 190
-10 61 -3 151 -7 200 -10 50 -3 137 -7 195 -10 198 -9 466 -22 600 -30 112 -6
272 -14 390 -20 282 -13 368 -17 395 -19 30 -2 30 -3 31 -64 2 -57 0 -64 -27
-86 l-29 -25 -2 -245 c-1 -272 2 -259 -68 -251 -19 2 -91 6 -160 10 -125 6
-176 9 -345 20 -49 4 -119 8 -155 10 -89 4 -248 14 -345 20 -44 3 -118 8 -165
10 -47 3 -114 7 -150 9 -36 3 -114 7 -175 11 -60 3 -141 8 -180 10 -38 3 -108
7 -155 10 -47 3 -119 7 -160 9 -41 3 -120 8 -175 11 -55 3 -131 8 -170 11 -38
2 -113 6 -165 9 -52 3 -126 7 -164 10 -38 3 -110 7 -160 10 -97 5 -203 11
-356 21 -134 9 -169 11 -305 18 -66 4 -145 9 -175 11 -30 2 -104 6 -165 10
-60 3 -137 8 -170 10 -33 2 -109 7 -170 10 -60 4 -137 8 -170 10 -33 2 -105 7
-160 10 -55 3 -129 8 -165 10 -36 2 -108 7 -160 10 -52 3 -126 7 -165 10 -38
3 -117 7 -175 10 -58 3 -132 8 -165 10 -33 3 -107 7 -165 10 -58 3 -136 8
-175 10 -205 13 -276 17 -335 20 -36 1 -101 5 -145 9 -125 9 -263 17 -345 21
-99 5 -264 16 -267 19 -3 3 -9 100 -18 291 -4 77 -8 161 -10 187 -2 29 1 48 8
51 7 2 134 2 282 1 240 -2 276 -1 320 15 52 19 62 19 375 6z"/>
</g>
</svg>
